<?xml version="1.0" encoding="UTF-8" standalone="no"?>
<!DOCTYPE svg PUBLIC "-//W3C//DTD SVG 1.1//EN" "http://www.w3.org/Graphics/SVG/1.1/DTD/svg11.dtd">
<svg width="100%" height="100%" viewBox="0 0 6523 754" version="1.1"
    xmlns="http://www.w3.org/2000/svg" xmlnsXlink="http://www.w3.org/1999/xlink"
    xmlSpace="preserve" xmlnsSerif="http://www.serif.com/"
    style="fill-rule:evenodd;clip-rule:evenodd;stroke-linecap:round;stroke-linejoin:round;stroke-miterlimit:1.5;"><g><path d="M1102.92,691.87l-0,-630l450,630l-0,-630" style="fill:none;stroke:#0036a3;stroke-width:83.33px;"/><ellipse cx="2631.67" cy="376.87" rx="260" ry="315" style="fill:none;stroke:#0036a3;stroke-width:83.33px;"/><path d="M1756.92,70.87l390,0" style="fill:none;stroke:#0036a3;stroke-width:83.33px;"/><path d="M1756.92,376.87l390,0" style="fill:none;stroke:#0036a3;stroke-width:83.33px;"/><path d="M1756.92,691.87l390,0" style="fill:none;stroke:#0036a3;stroke-width:83.33px;"/><path d="M1102.92,691.87l-0,-630l450,630l-0,-630" style="fill:none;stroke:#0036a3;stroke-width:83.33px;"/><ellipse cx="2631.67" cy="376.87" rx="260" ry="315" style="fill:none;stroke:#0036a3;stroke-width:83.33px;"/><path d="M1756.92,70.87l390,0" style="fill:none;stroke:#0036a3;stroke-width:83.33px;"/><path d="M1756.92,376.87l390,0" style="fill:none;stroke:#0036a3;stroke-width:83.33px;"/><path d="M1756.92,691.87l390,0" style="fill:none;stroke:#0036a3;stroke-width:83.33px;"/><path d="M3072.92,61.87l450,630" style="fill:none;stroke:#0036a3;stroke-width:83.33px;"/><path d="M3072.92,691.87l450,-630" style="fill:none;stroke:#0036a3;stroke-width:83.33px;"/><path d="M5350,691.87l0,-630" style="fill:none;stroke:#0036a3;stroke-width:83.33px;"/><path d="M6233.88,376.87c-118.792,0 -215.25,-70.57 -215.25,-157.5c0,-86.925 96.458,-157.5 215.25,-157.5c118.833,0 215.25,66.638 215.25,153.563" style="fill:none;stroke:#0036a3;stroke-width:83.33px;"/><path d="M6241.25,376.87c132,0 239.167,70.575 239.167,157.5c-0,86.93 -107.167,157.5 -239.167,157.5c-132,0 -239.167,-70.57 -239.167,-157.5" style="fill:none;stroke:#0036a3;stroke-width:83.33px;"/><path d="M6241.25,376.87c132,0 239.167,70.575 239.167,157.5c-0,86.93 -107.167,157.5 -239.167,157.5c-132,0 -239.167,-70.57 -239.167,-157.5" style="fill:none;stroke:#0036a3;stroke-width:83.33px;"/><path d="M6233.88,376.87c-118.792,0 -215.25,-70.57 -215.25,-157.5c0,-86.925 96.458,-157.5 215.25,-157.5c118.833,0 215.25,66.638 215.25,153.563" style="fill:none;stroke:#0036a3;stroke-width:83.33px;"/><path d="M6241.25,376.87c132,0 239.167,70.575 239.167,157.5c-0,86.93 -107.167,157.5 -239.167,157.5c-132,0 -239.167,-70.57 -239.167,-157.5" style="fill:none;stroke:#0036a3;stroke-width:83.33px;"/><path d="M6241.25,376.87c132,0 239.167,70.575 239.167,157.5c-0,86.93 -107.167,157.5 -239.167,157.5c-132,0 -239.167,-70.57 -239.167,-157.5" style="fill:none;stroke:#0036a3;stroke-width:83.33px;"/><path d="M5354.42,61.87l229.479,0" style="fill:none;stroke:#0036a3;stroke-width:83.33px;"/><path d="M5354.42,376.87l268.898,0" style="fill:none;stroke:#0036a3;stroke-width:83.33px;"/><path d="M5354.42,691.87l279.29,0" style="fill:none;stroke:#0036a3;stroke-width:83.33px;"/><path d="M4050,691.87l0,-630" style="fill:none;stroke:#0036a3;stroke-width:83.33px;"/><path d="M4666.67,691.87l250,-630l250,630" style="fill:none;stroke:#0036a3;stroke-width:83.33px;"/><path d="M4737.5,521.073l345.833,0" style="fill:none;stroke:#0036a3;stroke-width:83.33px;"/><path d="M4050,691.87l450,0" style="fill:none;stroke:#0036a3;stroke-width:83.33px;"/><path d="M5587.76,61.753c87.243,-0 158.073,70.618 158.073,157.599c0,86.982 -70.83,157.6 -158.073,157.6" style="fill:none;stroke:#0036a3;stroke-width:83.33px;"/><path d="M5629.43,376.879c87.243,0 158.073,70.618 158.073,157.6c-0,86.981 -70.83,157.599 -158.073,157.599" style="fill:none;stroke:#0036a3;stroke-width:83.33px;"/></g><g><g><path d="M187.198,492.778c1.007,-10.326 2.514,-20.506 4.497,-30.515c4.048,-20.433 10.079,-40.157 17.884,-58.961c15.939,-38.397 39.274,-72.962 68.224,-101.912c56.891,-56.891 135.465,-92.099 222.197,-92.099c86.732,0 165.306,35.208 222.197,92.099c28.95,28.95 52.285,63.515 68.224,101.912c7.805,18.804 13.836,38.528 17.884,58.961c1.983,10.009 3.49,20.189 4.497,30.515" style="fill:none;stroke:#0036a3;stroke-width:83.33px;"/><path d="M500,188.338l0,-146.671" style="fill:none;stroke:#0036a3;stroke-width:83.33px;"/><path d="M306.764,257.62l-65.398,-90.012" style="fill:none;stroke:#0036a3;stroke-width:83.33px;"/><path d="M693.236,257.62l65.398,-90.012" style="fill:none;stroke:#0036a3;stroke-width:83.33px;"/><path d="M181.159,419.989l-139.492,-45.324" style="fill:none;stroke:#0036a3;stroke-width:83.33px;"/><path d="M818.841,419.989l139.492,-45.324" style="fill:none;stroke:#0036a3;stroke-width:83.33px;"/></g><g><circle cx="489.523" cy="492.157" r="157.148" style="fill:none;stroke:#0036a3;stroke-width:83.33px;"/><path d="M606.923,607.399l104.765,104.765" style="fill:none;stroke:#0036a3;stroke-width:83.33px;"/></g></g></svg>