<?xml version="1.0" encoding="UTF-8" standalone="no"?>
<!DOCTYPE svg PUBLIC "-//W3C//DTD SVG 1.1//EN" "http://www.w3.org/Graphics/SVG/1.1/DTD/svg11.dtd">
<svg width="100%" height="100%" viewBox="0 0 1907 1417" version="1.1"
    xmlns="http://www.w3.org/2000/svg" xmlnsXlink="http://www.w3.org/1999/xlink"
    xmlSpace="preserve" xmlnsSerif="http://www.serif.com/"
    style="fill-rule:evenodd;clip-rule:evenodd;stroke-linecap:round;stroke-linejoin:round;stroke-miterlimit:1.5;">
    <g>
        <path d="M331.066,938.735c2.002,-20.534 4.999,-40.777 8.942,-60.682c8.05,-40.633 20.044,-79.854 35.565,-117.248c31.695,-76.356 78.098,-145.091 135.668,-202.66c113.131,-113.132 269.381,-183.145 441.855,-183.145c172.473,0 328.723,70.013 441.855,183.145c57.569,57.569 103.973,126.304 135.668,202.66c15.521,37.394 27.515,76.615 35.565,117.248c3.943,19.905 6.94,40.148 8.941,60.682" style="fill:none;stroke:#0036a3;stroke-width:83.33px;"/>
        <path d="M953.096,333.333l-0,-291.666" style="fill:none;stroke:#0036a3;stroke-width:83.33px;"/>
        <path d="M568.832,471.106l-130.048,-178.996" style="fill:none;stroke:#0036a3;stroke-width:83.33px;"/>
        <path d="M1337.36,471.106l130.048,-178.996" style="fill:none;stroke:#0036a3;stroke-width:83.33px;"/>
        <path d="M319.058,793.989l-277.391,-90.13" style="fill:none;stroke:#0036a3;stroke-width:83.33px;"/>
        <path d="M1587.13,793.989l277.391,-90.13" style="fill:none;stroke:#0036a3;stroke-width:83.33px;"/></g><g><circle cx="932.262" cy="937.5" r="312.5" style="fill:none;stroke:#0036a3;stroke-width:83.33px;"/>
        <path d="M1165.72,1166.67l208.333,208.333" style="fill:none;stroke:#0036a3;stroke-width:83.33px;"/>
    </g>
</svg>