<?xml version="1.0" encoding="UTF-8" standalone="no"?>
<!DOCTYPE svg PUBLIC "-//W3C//DTD SVG 1.1//EN" "http://www.w3.org/Graphics/SVG/1.1/DTD/svg11.dtd">
<svg width="100%" height="100%" viewBox="0 0 458 340" version="1.1" xmlns="http://www.w3.org/2000/svg" xmlnsXlink="http://www.w3.org/1999/xlink" xmlSpace="preserve" xmlnsSerif="http://www.serif.com/" style="fill-rule:evenodd;clip-rule:evenodd;stroke-linecap:round;stroke-linejoin:round;stroke-miterlimit:1.5;">
    <g transform="matrix(1,0,0,1,-71.257,-60)">
        <g>
            <g transform="matrix(1.5,0,0,1.5,-150,-150)">
                <path d="M200.475,290.198C200.796,286.912 201.275,283.673 201.906,280.488C203.194,273.987 205.113,267.712 207.596,261.729C212.667,249.512 220.092,238.514 229.303,229.303C247.404,211.202 272.404,200 300,200C327.596,200 352.596,211.202 370.697,229.303C379.908,238.514 387.333,249.512 392.404,261.729C394.887,267.712 396.806,273.987 398.094,280.488C398.725,283.673 399.204,286.912 399.525,290.198" style="fill:none;stroke:rgb(0,54,163);stroke-width:13.33px;"/>
            </g>
            <g transform="matrix(1.14286,0,0,1,-42.8571,-10)">
                <path d="M300,150L300,80" style="fill:none;stroke:rgb(0,54,163);stroke-width:18.63px;"/>
            </g>
            <g transform="matrix(0.396253,-0.287895,0.44588,0.613701,22.0187,167.379)">
                <path d="M300,150L300,80" style="fill:none;stroke:rgb(0,54,163);stroke-width:31.32px;"/>
            </g>
            <g transform="matrix(0.396253,0.287895,-0.44588,0.613701,340.229,-5.35809)">
                <path d="M300,150L300,80" style="fill:none;stroke:rgb(0,54,163);stroke-width:31.32px;"/>
            </g>
            <g transform="matrix(0.353162,-1.08692,0.951057,0.309017,-100.776,530.281)">
                <path d="M300,150L300,80" style="fill:none;stroke:rgb(0,54,163);stroke-width:18.63px;"/>
            </g>
            <g transform="matrix(0.353162,1.08692,-0.951057,0.309017,488.879,-121.872)">
                <path d="M300,150L300,80" style="fill:none;stroke:rgb(0,54,163);stroke-width:18.63px;"/>
            </g>
        </g>
        <g>
            <g transform="matrix(1.15385,0,0,1.15385,-10.7692,-20.7692)">
                <circle cx="265" cy="265" r="65" style="fill:none;stroke:rgb(0,54,163);stroke-width:17.33px;"/>
            </g>
            <g transform="matrix(0.838983,0,0,0.838983,74.1653,63.9995)">
                <path d="M330,328.97L389.596,388.566" style="fill:none;stroke:rgb(0,54,163);stroke-width:23.84px;"/>
            </g>
        </g>
    </g>
</svg>
