<?xml version="1.0" encoding="UTF-8" standalone="no"?>
<!DOCTYPE svg PUBLIC "-//W3C//DTD SVG 1.1//EN" "http://www.w3.org/Graphics/SVG/1.1/DTD/svg11.dtd">
<svg width="100%" height="100%" viewBox="0 0 1620 205" version="1.1" xmlns="http://www.w3.org/2000/svg" xmlnsXlink="http://www.w3.org/1999/xlink" xmlSpace="preserve" xmlnsSerif="http://www.serif.com/" style="fill-rule:evenodd;clip-rule:evenodd;stroke-linecap:round;stroke-linejoin:round;stroke-miterlimit:1.5;">
    <g transform="matrix(1,0,0,1,-124.107,-100)">
        <path d="M444.7,283.363L444.7,132.163L552.7,283.363L552.7,132.163" style="fill:none;stroke:rgb(0,54,163);stroke-width:16px;"/>
        <ellipse cx="811.6" cy="207.763" rx="62.4" ry="75.6" style="fill:none;stroke:rgb(0,54,163);stroke-width:16px;"/>
        <path d="M601.66,134.323L695.26,134.323" style="fill:none;stroke:rgb(0,54,163);stroke-width:16px;"/>
        <path d="M601.66,207.763L695.26,207.763" style="fill:none;stroke:rgb(0,54,163);stroke-width:16px;"/>
        <path d="M601.66,283.363L695.26,283.363" style="fill:none;stroke:rgb(0,54,163);stroke-width:16px;"/>
        <path d="M444.7,283.363L444.7,132.163L552.7,283.363L552.7,132.163" style="fill:none;stroke:rgb(0,54,163);stroke-width:16px;"/>
        <ellipse cx="811.6" cy="207.763" rx="62.4" ry="75.6" style="fill:none;stroke:rgb(0,54,163);stroke-width:16px;"/>
        <path d="M601.66,134.323L695.26,134.323" style="fill:none;stroke:rgb(0,54,163);stroke-width:16px;"/>
        <path d="M601.66,207.763L695.26,207.763" style="fill:none;stroke:rgb(0,54,163);stroke-width:16px;"/>
        <path d="M601.66,283.363L695.26,283.363" style="fill:none;stroke:rgb(0,54,163);stroke-width:16px;"/>
        <g>
            <path d="M917.5,132.163L1025.5,283.363" style="fill:none;stroke:rgb(0,54,163);stroke-width:16px;"/>
            <path d="M917.5,283.363L1025.5,132.163" style="fill:none;stroke:rgb(0,54,163);stroke-width:16px;"/>
        </g>
        <path d="M1464,283.363L1464,132.163" style="fill:none;stroke:rgb(0,54,163);stroke-width:16px;"/>
        <g>
            <path d="M1676.13,207.763C1647.62,207.763 1624.47,190.826 1624.47,169.963C1624.47,149.101 1647.62,132.163 1676.13,132.163C1704.65,132.163 1727.79,148.156 1727.79,169.018" style="fill:none;stroke:rgb(0,54,163);stroke-width:16px;"/>
            <path d="M1677.9,207.763C1709.58,207.763 1735.3,224.701 1735.3,245.563C1735.3,266.426 1709.58,283.363 1677.9,283.363C1646.22,283.363 1620.5,266.426 1620.5,245.563" style="fill:none;stroke:rgb(0,54,163);stroke-width:16px;"/>
            <path d="M1677.9,207.763C1709.58,207.763 1735.3,224.701 1735.3,245.563C1735.3,266.426 1709.58,283.363 1677.9,283.363C1646.22,283.363 1620.5,266.426 1620.5,245.563" style="fill:none;stroke:rgb(0,54,163);stroke-width:16px;"/>
            <path d="M1676.13,207.763C1647.62,207.763 1624.47,190.826 1624.47,169.963C1624.47,149.101 1647.62,132.163 1676.13,132.163C1704.65,132.163 1727.79,148.156 1727.79,169.018" style="fill:none;stroke:rgb(0,54,163);stroke-width:16px;"/>
            <path d="M1677.9,207.763C1709.58,207.763 1735.3,224.701 1735.3,245.563C1735.3,266.426 1709.58,283.363 1677.9,283.363C1646.22,283.363 1620.5,266.426 1620.5,245.563" style="fill:none;stroke:rgb(0,54,163);stroke-width:16px;"/>
            <path d="M1677.9,207.763C1709.58,207.763 1735.3,224.701 1735.3,245.563C1735.3,266.426 1709.58,283.363 1677.9,283.363C1646.22,283.363 1620.5,266.426 1620.5,245.563" style="fill:none;stroke:rgb(0,54,163);stroke-width:16px;"/>
        </g>
        <g transform="matrix(0.658791,0,0,0.64794,603.322,46.5292)">
            <path d="M1308.06,132.163L1391.66,132.163" style="fill:none;stroke:rgb(0,54,163);stroke-width:24.49px;"/>
        </g>
        <g transform="matrix(0.781303,0,0,0.719255,443.069,58.3285)">
            <path d="M1308.06,207.763L1390.66,207.763" style="fill:none;stroke:rgb(0,54,163);stroke-width:21.31px;"/>
        </g>
        <g transform="matrix(0.716129,0,0,0.753143,528.32,69.9502)">
            <path d="M1308.06,283.363L1401.66,283.363" style="fill:none;stroke:rgb(0,54,163);stroke-width:21.77px;"/>
        </g>
        <g transform="matrix(1,0,0,1,-312,0)">
            <path d="M1464,283.363L1464,132.163" style="fill:none;stroke:rgb(0,54,163);stroke-width:16px;"/>
        </g>
        <path d="M1300,283.363L1360,132.163L1420,283.363" style="fill:none;stroke:rgb(0,54,163);stroke-width:16px;"/>
        <g transform="matrix(1.22059,0,0,1.0641,-300.279,-2.37189)">
            <path d="M1325,230L1393,230" style="fill:none;stroke:rgb(0,54,163);stroke-width:13.97px;"/>
        </g>
        <g transform="matrix(1,0,0,1,-312,0)">
            <path d="M1464,283.363L1572,283.363" style="fill:none;stroke:rgb(0,54,163);stroke-width:16px;"/>
        </g>
        <g transform="matrix(1.06867,0,0,1.06546,-133.766,-22.3569)">
            <path d="M1548.5,145C1568.09,145 1584,160.907 1584,180.5C1584,200.093 1568.09,216 1548.5,216" style="fill:none;stroke:rgb(0,54,163);stroke-width:14.99px;"/>
        </g>
        <g transform="matrix(1.06867,0,0,1.06546,-123.766,53.2734)">
            <path d="M1548.5,145C1568.09,145 1584,160.907 1584,180.5C1584,200.093 1568.09,216 1548.5,216" style="fill:none;stroke:rgb(0,54,163);stroke-width:14.99px;"/>
        </g>
        <g transform="matrix(0.575529,0,0,0.575529,87.3413,69.713)">
            <g transform="matrix(1.5,0,0,1.5,-150,-150)">
                <path d="M200.475,290.198C200.796,286.912 201.275,283.673 201.906,280.488C203.194,273.987 205.113,267.712 207.596,261.729C212.667,249.512 220.092,238.514 229.303,229.303C247.404,211.202 272.404,200 300,200C327.596,200 352.596,211.202 370.697,229.303C379.908,238.514 387.333,249.512 392.404,261.729C394.887,267.712 396.806,273.987 398.094,280.488C398.725,283.673 399.204,286.912 399.525,290.198" style="fill:none;stroke:rgb(0,54,163);stroke-width:23.17px;"/>
            </g>
            <g transform="matrix(1.14286,0,0,1,-42.8571,-10)">
                <path d="M300,150L300,80" style="fill:none;stroke:rgb(0,54,163);stroke-width:32.36px;"/>
            </g>
            <g transform="matrix(0.396253,-0.287895,0.44588,0.613701,22.0187,167.379)">
                <path d="M300,150L300,80" style="fill:none;stroke:rgb(0,54,163);stroke-width:54.43px;"/>
            </g>
            <g transform="matrix(0.396253,0.287895,-0.44588,0.613701,340.229,-5.35809)">
                <path d="M300,150L300,80" style="fill:none;stroke:rgb(0,54,163);stroke-width:54.43px;"/>
            </g>
            <g transform="matrix(0.353162,-1.08692,0.951057,0.309017,-100.776,530.281)">
                <path d="M300,150L300,80" style="fill:none;stroke:rgb(0,54,163);stroke-width:32.36px;"/>
            </g>
            <g transform="matrix(0.353162,1.08692,-0.951057,0.309017,488.879,-121.872)">
                <path d="M300,150L300,80" style="fill:none;stroke:rgb(0,54,163);stroke-width:32.36px;"/>
            </g>
        </g>
        <g transform="matrix(0.575529,0,0,0.575529,87.3413,69.713)">
            <g transform="matrix(1.15385,0,0,1.15385,-10.7692,-20.7692)">
                <circle cx="265" cy="265" r="65" style="fill:none;stroke:rgb(0,54,163);stroke-width:30.12px;"/>
            </g>
            <g transform="matrix(0.838983,0,0,0.838983,74.1653,63.9995)">
                <path d="M330,328.97L389.596,388.566" style="fill:none;stroke:rgb(0,54,163);stroke-width:41.42px;"/>
            </g>
        </g>
    </g>
</svg>
