<?xml version="1.0" encoding="UTF-8" standalone="no"?>
<!DOCTYPE svg PUBLIC "-//W3C//DTD SVG 1.1//EN" "http://www.w3.org/Graphics/SVG/1.1/DTD/svg11.dtd">
<svg width="100%" height="100%" viewBox="0 0 1744 328" version="1.1" xmlns="http://www.w3.org/2000/svg" xmlnsXlink="http://www.w3.org/1999/xlink" xmlSpace="preserve" xmlnsSerif="http://www.serif.com/" style="fill-rule:evenodd;clip-rule:evenodd;stroke-linecap:round;stroke-linejoin:round;stroke-miterlimit:1.5;">
    <g>
        <circle cx="198.611" cy="222.32" r="95.425" style="fill:none;stroke:black;stroke-width:20px;"/>
        <path d="M56.154,208.289C56.613,203.586 57.299,198.95 58.202,194.392C60.046,185.086 62.793,176.104 66.347,167.54C73.606,150.053 84.233,134.311 97.418,121.127C123.327,95.217 159.111,79.183 198.611,79.183C238.111,79.183 273.895,95.217 299.804,121.127C312.989,134.311 323.616,150.053 330.875,167.54C334.43,176.104 337.177,185.086 339.02,194.392C339.923,198.95 340.61,203.586 341.068,208.289" style="fill:none;stroke:black;stroke-width:20px;"/>
        <path d="M198.611,69.64L198.611,10" style="fill:none;stroke:black;stroke-width:20px;"/>
        <path d="M110.607,101.193L76.168,53.791" style="fill:none;stroke:black;stroke-width:20px;"/>
        <path d="M286.615,101.193L321.054,53.792" style="fill:none;stroke:black;stroke-width:20px;"/>
        <path d="M53.404,175.139L10,161.036" style="fill:none;stroke:black;stroke-width:20px;"/>
        <path d="M289.365,192.832C305.64,242.921 278.188,296.799 228.099,313.074C178.01,329.349 124.132,301.896 107.857,251.808C91.582,201.719 119.035,147.84 169.123,131.566C219.212,115.291 273.091,142.743 289.365,192.832Z" style="fill:none;stroke:black;stroke-width:20px;"/>
        <path d="M343.818,175.139L387.258,161.025" style="fill:none;stroke:black;stroke-width:20px;"/>
    </g>
    <path d="M444.7,283.363L444.7,132.163L552.7,283.363L552.7,132.163" style="fill:none;stroke:black;stroke-width:16px;"/>
    <ellipse cx="811.6" cy="207.763" rx="62.4" ry="75.6" style="fill:none;stroke:black;stroke-width:16px;"/>
    <path d="M601.66,134.323L695.26,134.323" style="fill:none;stroke:black;stroke-width:16px;"/>
    <path d="M601.66,207.763L695.26,207.763" style="fill:none;stroke:black;stroke-width:16px;"/>
    <path d="M601.66,283.363L695.26,283.363" style="fill:none;stroke:black;stroke-width:16px;"/>
    <path d="M444.7,283.363L444.7,132.163L552.7,283.363L552.7,132.163" style="fill:none;stroke:black;stroke-width:16px;"/>
    <ellipse cx="811.6" cy="207.763" rx="62.4" ry="75.6" style="fill:none;stroke:black;stroke-width:16px;"/>
    <path d="M601.66,134.323L695.26,134.323" style="fill:none;stroke:black;stroke-width:16px;"/>
    <path d="M601.66,207.763L695.26,207.763" style="fill:none;stroke:black;stroke-width:16px;"/>
    <path d="M601.66,283.363L695.26,283.363" style="fill:none;stroke:black;stroke-width:16px;"/>
    <g>
        <path d="M917.5,132.163L1025.5,283.363" style="fill:none;stroke:black;stroke-width:16px;"/>
        <path d="M917.5,283.363L1025.5,132.163" style="fill:none;stroke:black;stroke-width:16px;"/>
    </g>
    <path d="M1464,283.363L1464,132.163" style="fill:none;stroke:black;stroke-width:16px;"/>
    <g>
        <path d="M1676.13,207.763C1647.62,207.763 1624.47,190.826 1624.47,169.963C1624.47,149.101 1647.62,132.163 1676.13,132.163C1704.65,132.163 1727.79,148.156 1727.79,169.018" style="fill:none;stroke:black;stroke-width:16px;"/>
        <path d="M1677.9,207.763C1709.58,207.763 1735.3,224.701 1735.3,245.563C1735.3,266.426 1709.58,283.363 1677.9,283.363C1646.22,283.363 1620.5,266.426 1620.5,245.563" style="fill:none;stroke:black;stroke-width:16px;"/>
        <path d="M1677.9,207.763C1709.58,207.763 1735.3,224.701 1735.3,245.563C1735.3,266.426 1709.58,283.363 1677.9,283.363C1646.22,283.363 1620.5,266.426 1620.5,245.563" style="fill:none;stroke:black;stroke-width:16px;"/>
        <path d="M1676.13,207.763C1647.62,207.763 1624.47,190.826 1624.47,169.963C1624.47,149.101 1647.62,132.163 1676.13,132.163C1704.65,132.163 1727.79,148.156 1727.79,169.018" style="fill:none;stroke:black;stroke-width:16px;"/>
        <path d="M1677.9,207.763C1709.58,207.763 1735.3,224.701 1735.3,245.563C1735.3,266.426 1709.58,283.363 1677.9,283.363C1646.22,283.363 1620.5,266.426 1620.5,245.563" style="fill:none;stroke:black;stroke-width:16px;"/>
        <path d="M1677.9,207.763C1709.58,207.763 1735.3,224.701 1735.3,245.563C1735.3,266.426 1709.58,283.363 1677.9,283.363C1646.22,283.363 1620.5,266.426 1620.5,245.563" style="fill:none;stroke:black;stroke-width:16px;"/>
    </g>
    <g transform="matrix(1,0,0,1,7,0)">
        <path d="M1308.06,283.363L1354.84,132.156L1401.66,283.363" style="fill:none;stroke:black;stroke-width:16px;"/>
    </g>
    <g transform="matrix(0.658791,0,0,0.64794,603.322,46.5292)">
        <path d="M1308.06,132.163L1391.66,132.163" style="fill:none;stroke:black;stroke-width:24.49px;"/>
    </g>
    <g transform="matrix(0.781303,0,0,0.719255,443.069,58.3285)">
        <path d="M1308.06,207.763L1390.66,207.763" style="fill:none;stroke:black;stroke-width:21.31px;"/>
    </g>
    <g transform="matrix(0.716129,0,0,0.753143,528.32,69.9502)">
        <path d="M1308.06,283.363L1401.66,283.363" style="fill:none;stroke:black;stroke-width:21.77px;"/>
    </g>
    <g transform="matrix(0.252785,-0.353899,0.353899,0.252785,907.246,692.462)">
        <path d="M1490.73,169.584L1542.52,242.084" style="fill:none;stroke:black;stroke-width:36.79px;"/>
    </g>
    <g transform="matrix(1,0,0,1,-312,0)">
        <path d="M1464,283.363L1464,132.163" style="fill:none;stroke:black;stroke-width:16px;"/>
    </g>
    <g transform="matrix(1,0,0,1,-312,0)">
        <path d="M1464,283.363L1572,283.363" style="fill:none;stroke:black;stroke-width:16px;"/>
    </g>
    <g transform="matrix(1.06867,0,0,1.06546,-133.766,-22.3569)">
        <path d="M1548.5,145C1568.09,145 1584,160.907 1584,180.5C1584,200.093 1568.09,216 1548.5,216" style="fill:none;stroke:black;stroke-width:14.99px;"/>
    </g>
    <g transform="matrix(1.06867,0,0,1.06546,-123.766,53.2734)">
        <path d="M1548.5,145C1568.09,145 1584,160.907 1584,180.5C1584,200.093 1568.09,216 1548.5,216" style="fill:none;stroke:black;stroke-width:14.99px;"/>
    </g>
</svg>
