<?xml version="1.0" encoding="UTF-8" standalone="no"?>
<!DOCTYPE svg PUBLIC "-//W3C//DTD SVG 1.1//EN" "http://www.w3.org/Graphics/SVG/1.1/DTD/svg11.dtd">
<svg width="436px" height="363px" version="1.1" xmlns="http://www.w3.org/2000/svg" xmlns:xlink="http://www.w3.org/1999/xlink" xml:space="preserve" xmlns:serif="http://www.serif.com/" style="fill-rule:evenodd;clip-rule:evenodd;stroke-linecap:round;stroke-linejoin:round;stroke-miterlimit:1.5;">
    <circle cx="217.654" cy="242.5" r="100" style="fill:none;stroke:black;stroke-width:40px;"/>
    <path d="M68.367,227.796C68.848,222.868 69.567,218.01 70.513,213.233C72.445,203.481 75.324,194.068 79.049,185.093C86.656,166.768 97.793,150.271 111.609,136.455C138.761,109.303 176.261,92.5 217.654,92.5C259.048,92.5 296.548,109.303 323.7,136.455C337.516,150.271 348.653,166.768 356.26,185.093C359.985,194.068 362.864,203.481 364.796,213.233C365.742,218.01 366.461,222.868 366.942,227.796" style="fill:none;stroke:black;stroke-width:40px;"/>
    <path d="M217.654,82.5L217.654,20" style="fill:none;stroke:black;stroke-width:40px;"/>
    <path d="M125.431,115.565L89.34,65.891" style="fill:none;stroke:black;stroke-width:40px;"/>
    <path d="M309.878,115.565L345.968,65.892" style="fill:none;stroke:black;stroke-width:40px;"/>
    <path d="M65.485,193.057L20,178.278" style="fill:none;stroke:black;stroke-width:40px;"/>
    <path d="M312.76,211.598C329.815,264.089 301.046,320.551 248.556,337.606C196.066,354.661 139.604,325.892 122.549,273.402C105.494,220.911 134.263,164.449 186.753,147.394C239.243,130.339 295.705,159.108 312.76,211.598Z" style="fill:none;stroke:black;stroke-width:40px;"/>
    <path d="M369.824,193.057L415.346,178.266" style="fill:none;stroke:black;stroke-width:40px;"/>
</svg>
