<?xml version="1.0" encoding="UTF-8" standalone="no"?>
<!DOCTYPE svg PUBLIC "-//W3C//DTD SVG 1.1//EN" "http://www.w3.org/Graphics/SVG/1.1/DTD/svg11.dtd">
<svg width="1307px" height="168px" version="1.1" xmlns="http://www.w3.org/2000/svg" xmlns:xlink="http://www.w3.org/1999/xlink" xml:space="preserve" xmlns:serif="http://www.serif.com/" style="fill-rule:evenodd;clip-rule:evenodd;stroke-linecap:round;stroke-linejoin:round;stroke-miterlimit:1.5;">
    <path d="M8,159.2L8,8L116,159.2L116,8" style="fill:none;stroke:black;stroke-width:16px;"/>
    <ellipse cx="374.9" cy="83.6" rx="62.4" ry="75.6" style="fill:none;stroke:black;stroke-width:16px;"/>
    <path d="M164.96,10.16L258.56,10.16" style="fill:none;stroke:black;stroke-width:16px;"/>
    <path d="M164.96,83.6L258.56,83.6" style="fill:none;stroke:black;stroke-width:16px;"/>
    <path d="M164.96,159.2L258.56,159.2" style="fill:none;stroke:black;stroke-width:16px;"/>
    <path d="M8,159.2L8,8L116,159.2L116,8" style="fill:none;stroke:black;stroke-width:16px;"/>
    <ellipse cx="374.9" cy="83.6" rx="62.4" ry="75.6" style="fill:none;stroke:black;stroke-width:16px;"/>
    <path d="M164.96,10.16L258.56,10.16" style="fill:none;stroke:black;stroke-width:16px;"/>
    <path d="M164.96,83.6L258.56,83.6" style="fill:none;stroke:black;stroke-width:16px;"/>
    <path d="M164.96,159.2L258.56,159.2" style="fill:none;stroke:black;stroke-width:16px;"/>
    <g>
        <path d="M480.8,8L588.8,159.2" style="fill:none;stroke:black;stroke-width:16px;"/>
        <path d="M480.8,159.2L588.8,8" style="fill:none;stroke:black;stroke-width:16px;"/>
    </g>
    <path d="M1027.3,159.2L1027.3,8L1135.3,159.2L1135.3,8" style="fill:none;stroke:black;stroke-width:16px;"/>
    <path d="M871.36,8L964.96,8" style="fill:none;stroke:black;stroke-width:16px;"/>
    <path d="M871.36,83.6L964.96,83.6" style="fill:none;stroke:black;stroke-width:16px;"/>
    <path d="M871.36,159.2L964.96,159.2" style="fill:none;stroke:black;stroke-width:16px;"/>
    <g>
        <path d="M766.646,83.6C738.333,83.6 715.346,66.662 715.346,45.8C715.346,24.938 738.333,8 766.646,8C794.959,8 817.946,23.993 817.946,44.855" style="fill:none;stroke:black;stroke-width:16px;"/>
        <path d="M768.4,83.6C799.859,83.6 825.4,100.538 825.4,121.4C825.4,142.262 799.859,159.2 768.4,159.2C736.941,159.2 711.4,142.262 711.4,121.4" style="fill:none;stroke:black;stroke-width:16px;"/>
        <path d="M768.4,83.6C799.859,83.6 825.4,100.538 825.4,121.4C825.4,142.262 799.859,159.2 768.4,159.2C736.941,159.2 711.4,142.262 711.4,121.4" style="fill:none;stroke:black;stroke-width:16px;"/>
        <path d="M766.646,83.6C738.333,83.6 715.346,66.662 715.346,45.8C715.346,24.938 738.333,8 766.646,8C794.959,8 817.946,23.993 817.946,44.855" style="fill:none;stroke:black;stroke-width:16px;"/>
        <path d="M768.4,83.6C799.859,83.6 825.4,100.538 825.4,121.4C825.4,142.262 799.859,159.2 768.4,159.2C736.941,159.2 711.4,142.262 711.4,121.4" style="fill:none;stroke:black;stroke-width:16px;"/>
        <path d="M768.4,83.6C799.859,83.6 825.4,100.538 825.4,121.4C825.4,142.262 799.859,159.2 768.4,159.2C736.941,159.2 711.4,142.262 711.4,121.4" style="fill:none;stroke:black;stroke-width:16px;"/>
    </g>
    <g>
        <path d="M1239.43,83.6C1210.92,83.6 1187.77,66.662 1187.77,45.8C1187.77,24.938 1210.92,8 1239.43,8C1267.95,8 1291.09,23.993 1291.09,44.855" style="fill:none;stroke:black;stroke-width:16px;"/>
        <path d="M1241.2,83.6C1272.88,83.6 1298.6,100.538 1298.6,121.4C1298.6,142.262 1272.88,159.2 1241.2,159.2C1209.52,159.2 1183.8,142.262 1183.8,121.4" style="fill:none;stroke:black;stroke-width:16px;"/>
        <path d="M1241.2,83.6C1272.88,83.6 1298.6,100.538 1298.6,121.4C1298.6,142.262 1272.88,159.2 1241.2,159.2C1209.52,159.2 1183.8,142.262 1183.8,121.4" style="fill:none;stroke:black;stroke-width:16px;"/>
        <path d="M1239.43,83.6C1210.92,83.6 1187.77,66.662 1187.77,45.8C1187.77,24.938 1210.92,8 1239.43,8C1267.95,8 1291.09,23.993 1291.09,44.855" style="fill:none;stroke:black;stroke-width:16px;"/>
        <path d="M1241.2,83.6C1272.88,83.6 1298.6,100.538 1298.6,121.4C1298.6,142.262 1272.88,159.2 1241.2,159.2C1209.52,159.2 1183.8,142.262 1183.8,121.4" style="fill:none;stroke:black;stroke-width:16px;"/>
        <path d="M1241.2,83.6C1272.88,83.6 1298.6,100.538 1298.6,121.4C1298.6,142.262 1272.88,159.2 1241.2,159.2C1209.52,159.2 1183.8,142.262 1183.8,121.4" style="fill:none;stroke:black;stroke-width:16px;"/>
    </g>
    <path d="M1027.3,159.2L1027.3,8L1135.3,159.2L1135.3,8" style="fill:none;stroke:black;stroke-width:16px;"/>
    <path d="M871.36,8L964.96,8" style="fill:none;stroke:black;stroke-width:16px;"/>
    <path d="M871.36,83.6L964.96,83.6" style="fill:none;stroke:black;stroke-width:16px;"/>
    <path d="M871.36,159.2L964.96,159.2" style="fill:none;stroke:black;stroke-width:16px;"/>
</svg>
