<?xml version="1.0" encoding="UTF-8" standalone="no"?>
<!DOCTYPE svg PUBLIC "-//W3C//DTD SVG 1.1//EN" "http://www.w3.org/Graphics/SVG/1.1/DTD/svg11.dtd">
<svg width="426px" height="353px" version="1.1" xmlns="http://www.w3.org/2000/svg" xmlns:xlink="http://www.w3.org/1999/xlink" xml:space="preserve" xmlns:serif="http://www.serif.com/" style="fill-rule:evenodd;clip-rule:evenodd;stroke-linecap:round;stroke-linejoin:round;stroke-miterlimit:1.5;">
    <circle cx="212.654" cy="237.5" r="100" style="fill:none;stroke:black;stroke-width:30px;"/>
    <path d="M63.367,222.796C63.848,217.868 64.567,213.01 65.513,208.233C67.445,198.481 70.324,189.068 74.049,180.093C81.656,161.768 92.793,145.271 106.609,131.455C133.761,104.303 171.261,87.5 212.654,87.5C254.048,87.5 291.548,104.303 318.7,131.455C332.516,145.271 343.653,161.768 351.26,180.093C354.985,189.068 357.864,198.481 359.796,208.233C360.742,213.01 361.461,217.868 361.942,222.796" style="fill:none;stroke:black;stroke-width:30px;"/>
    <path d="M212.654,77.5L212.654,15" style="fill:none;stroke:black;stroke-width:30px;"/>
    <path d="M120.431,110.565L84.34,60.891" style="fill:none;stroke:black;stroke-width:30px;"/>
    <path d="M304.878,110.565L340.968,60.892" style="fill:none;stroke:black;stroke-width:30px;"/>
    <path d="M60.485,188.057L15,173.278" style="fill:none;stroke:black;stroke-width:30px;"/>
    <path d="M307.76,206.598C324.815,259.089 296.046,315.551 243.556,332.606C191.066,349.661 134.604,320.892 117.549,268.402C100.494,215.911 129.263,159.449 181.753,142.394C234.243,125.339 290.705,154.108 307.76,206.598Z" style="fill:none;stroke:black;stroke-width:30px;"/>
    <path d="M364.824,188.057L410.346,173.266" style="fill:none;stroke:black;stroke-width:30px;"/>
</svg>
